<svg width="459" height="564" fill="none" xmlns="http://www.w3.org/2000/svg"><g clip-path="url(#a)"><g clip-path="url(#b)"><path d="M368.519 343.644c9.082-2.053 16.421-3.794 21.148-5.163-12.875-14.928-18.038-22.392-26.435-33.028 0 0 1.68 11.569 5.225 38.066l.062.125Zm6.22 46.401v.56c9.144 63.817 19.842 134.352 20.589 148.098l-244.198-.435c.809-43.914 18.66-166.883 28.923-230.14-5.411 2.239-100.64 37.32-111.96 25.813v-.311c-7.899-45.282-18.038-94.669-23.822-131.864l26.746-11.632c4.167 13 22.33 60.583 33.712 85.525a505.497 505.497 0 0 1 83.162-62.075c18.66-10.077 49.138-8.833 49.138-8.833a17.604 17.604 0 0 1 9.703-13.435l1.804-.684c20.837-5.723 59.027-1.617 63.817 1.306a21.95 21.95 0 0 1 7.961 12.44s50.818 7.464 65.746 19.717c0 0 45.281 61.889 67.922 110.468 8.335 17.851 5.163 28.798-10.014 37.32-8.708 5.846-38.564 12.813-69.104 18.162h-.125Zm-84.281-24.88c1.12-2.986-5.784-11.383-13.932-12.067h-.809l3.11-26.621c0-3.297-12.44-6.22-27.43-6.22s-27.368 2.736-27.368 6.22a1.8 1.8 0 0 0 .373 1.057l3.359 29.545a1.487 1.487 0 0 0 0 .498 6.217 6.217 0 0 0-6.593 6.779 13.306 13.306 0 0 0 7.09 9.89 5.793 5.793 0 0 0-4.777 1.065 5.787 5.787 0 0 0-2.251 4.347 12.438 12.438 0 0 0 6.904 8.708 5.155 5.155 0 0 0-4.573.667 5.151 5.151 0 0 0-2.207 4.06c0 2.985 4.23 6.717 11.818 9.33v1.493l1.866 16.731a58.898 58.898 0 0 0 15.986 2.364 77.574 77.574 0 0 0 17.478-2.364l1.741-15.798v-.996a119.247 119.247 0 0 0 22.89-6.593l1.057-.871c-5.535-5.535-9.516-23.449-3.607-31.224h-.125ZM274.162 78.547a2.614 2.614 0 0 1 2.426 2.737 2.676 2.676 0 0 1-2.799 2.426 2.611 2.611 0 0 1-2.364-2.799 2.48 2.48 0 0 1 .859-1.771 2.495 2.495 0 0 1 1.878-.593ZM240.014 77.614a2.609 2.609 0 0 1 2.064 2.744 2.61 2.61 0 0 1-3.531 2.255 2.617 2.617 0 0 1-1.524-1.536 2.604 2.604 0 0 1 .156-2.157 2.607 2.607 0 0 1 2.835-1.306Z" fill="#001858"/><path d="M180.24 308.314c-5.411 2.239-100.64 37.32-111.96 25.813" stroke="#001858" stroke-width="2" stroke-miterlimit="10"/><path d="M308.061 57.773c-.746-5.225-1.555-11.32-2.737-17.54a61.513 61.513 0 0 0-11.569-28.053c-14.244-15.923-29.545-9.952-42.545 3.421a99.555 99.555 0 0 0-10.201 12.44 155.526 155.526 0 0 0-21.21 43.54c-5.473 21.521 24.88 70.037 33.65 73.52 1.051.385 2.133.676 3.235.871 12.813 2.426 29.109-9.019 34.583-20.277" stroke="#001858" stroke-width="2" stroke-miterlimit="10" stroke-linecap="round"/><path d="M312.477 192.125c0-36.823 1.991-70.286-1.057-106.984M256.995 144.355c-.03.497-.03.996 0 1.493-3.235 14.492-4.105 32.406-10.077 45.281" stroke="#001858" stroke-width="2" stroke-miterlimit="10"/><path d="M302.961 64.304a35.422 35.422 0 0 1 5.349-6.22c14.555-12.44 24.196 15.239 18.224 23.076a13.809 13.809 0 0 1-14.99 3.359c-1.17-.32-2.298-.78-3.359-1.369" stroke="#001858" stroke-width="2" stroke-miterlimit="10" stroke-linecap="round"/><path d="M241.134 27.917c-3.483-.374-51.813-10.139-44.909-23.699 3.981-7.712 29.608.498 55.11 11.072 24.258 10.076 48.516 22.268 54.114 24.88l.87.373" stroke="#001858" stroke-width="2" stroke-miterlimit="10"/><path d="M269.248 67.04a16.732 16.732 0 0 1 15.053 2.675M310.86 69.342a15.115 15.115 0 0 0 9.703 3.856M235.474 68.16c4.105-1.866 13.373-1.368 15.052 2.675 2.675 6.53-1.306 20.09-2.986 27.865-1.181 5.287-3.047 15.55 6.22 12.813M266.511 124.575a10.88 10.88 0 0 1-13.357 2.068 10.895 10.895 0 0 1-3.561-3.249M352.41 558.109c-.747 26.622 17.478 42.67 40.243 49.201a89.325 89.325 0 0 0 20.028 3.296" stroke="#001858" stroke-width="2" stroke-miterlimit="10" stroke-linecap="round"/><path d="M390.849 1018.95v-46.651c.684-77.439 2.239-234.991 1.555-364.989 0-23.139-.311-45.406-.622-66.181M156.044 539.014c3.857 171.61 41.425 319.086 77.377 433.285-5.038 1.058-37.32 18.287-64.564 21.459-12.999 1.493-25.315 8.772-22.392 25.312H248.66M374.988 390.605c9.144 63.817 19.842 134.352 20.588 148.098l-244.197-.435c.809-43.914 18.66-166.883 28.923-230.14 0-1.804.56-3.484.809-5.163" stroke="#001858" stroke-width="2" stroke-linecap="round" stroke-linejoin="round"/><path d="M71.328 189.139c10.574-15.363 1.68-41.239-1.306-51.502-1.742-6.22-10.761-5.722-9.828 3.11.746 7.589 1.804 15.613-1.306 18.66M58.452 160.403a1.492 1.492 0 0 0 0-.498v0C52.42 142.8 32.826 111.7 22.687 117.92a4.043 4.043 0 0 0-1.803 5.225 20.464 20.464 0 0 0 4.913 6.717 55.987 55.987 0 0 1 14.928 21.086M20.573 123.331a11.687 11.687 0 0 0-9.454-4.602 5.098 5.098 0 0 0-5.287 4.105c-.996 3.11 1.181 5.598 3.358 7.65a133.618 133.618 0 0 1 20.588 26.933" stroke="#001858" stroke-width="2" stroke-miterlimit="10" stroke-linecap="round"/><path d="M43.4 202.014c-8.708-.995-15.488-21.21-17.79-27.865A84.843 84.843 0 0 0 8.942 147.9c-2.612-3.047-7.961-8.086-7.65-12.44a6.217 6.217 0 0 1 3.02-3.94 6.213 6.213 0 0 1 4.941-.476M46.261 171.785c-2.488-8.21 7.526-11.631 12.44-11.445" stroke="#001858" stroke-width="2" stroke-miterlimit="10" stroke-linecap="round"/><path d="m102.801 277.898 1.928-1.741a505.452 505.452 0 0 1 83.162-62.573c18.66-10.077 49.138-8.833 49.138-8.833a17.604 17.604 0 0 1 9.703-13.435l1.804-.684c20.837-5.723 59.027-1.617 63.817 1.306a21.95 21.95 0 0 1 7.961 12.44s50.818 7.464 65.746 19.717c0 0 45.281 61.889 67.922 110.468 8.335 17.851 5.163 28.798-10.014 37.32-9.143 5.224-38.688 12.44-69.229 17.54-36.013 6.22-73.333 10.574-79.553 7.277a5.8 5.8 0 0 1-1.493-1.119c-5.163-5.349-9.144-23.201-3.235-31.1a9.143 9.143 0 0 1 4.728-3.235c26.061-7.526 53.616-13.746 73.209-18.286 9.081-2.053 16.421-3.795 21.148-5.163-12.875-14.928-18.038-22.392-26.435-33.028 0 0 1.679 11.569 5.225 38.066" stroke="#001858" stroke-width="2" stroke-linecap="round" stroke-linejoin="round"/><path d="M275.033 359.505c-3.732 9.641-22.33 7.961-30.478 6.655-2.861-.435-14.555-3.794-16.608-9.019a1.48 1.48 0 0 1 0-.497" stroke="#001858" stroke-width="2" stroke-miterlimit="10"/><path d="M228.01 357.203a6.234 6.234 0 0 0-4.859 1.871 6.223 6.223 0 0 0-1.735 4.909 13.317 13.317 0 0 0 7.091 9.89 43.54 43.54 0 0 0 29.545 5.225M228.383 373.935a5.793 5.793 0 0 0-4.778 1.065 5.787 5.787 0 0 0-2.251 4.347 12.44 12.44 0 0 0 6.904 8.708 47.35 47.35 0 0 0 29.048 4.665" stroke="#001858" stroke-width="2" stroke-miterlimit="10" stroke-linecap="round"/><path d="M228.134 388.179a5.155 5.155 0 0 0-4.573.667 5.17 5.17 0 0 0-2.207 4.06c0 2.986 4.23 6.718 11.818 9.33a74.64 74.64 0 0 0 36.698 1.431 119.247 119.247 0 0 0 22.89-6.593M290.458 365.041c1.12-2.986-5.784-11.383-13.932-12.067" stroke="#001858" stroke-width="2" stroke-miterlimit="10" stroke-linecap="round"/><path d="m224.278 326.103.124 1.058 3.359 29.545.062.373M278.889 326.103l-.062.187-3.11 26.622-.746 6.655" stroke="#001858" stroke-width="2" stroke-linecap="round" stroke-linejoin="round"/><path d="M224.402 327.161a1.801 1.801 0 0 1-.373-1.058c0-3.296 12.44-6.22 27.368-6.22 14.928 0 27.43 2.737 27.43 6.22-.373 3.235-12.44 5.847-27.368 5.847-13.622.187-24.88-1.99-27.057-4.789ZM270.057 404.662l-1.742 15.799a77.622 77.622 0 0 1-17.478 2.363 58.884 58.884 0 0 1-15.985-2.363l-1.866-16.732M67.782 333.816c-7.899-45.281-18.038-94.668-23.822-131.864l26.746-11.631c4.167 13 22.33 60.583 33.712 85.525" stroke="#001858" stroke-width="2" stroke-linecap="round" stroke-linejoin="round"/><path d="M258.674 311.797a16.168 16.168 0 0 0 4.479-12.44 72.753 72.753 0 0 0-5.35-10.2c-3.918-8.957 0-15.488 6.22-21.646M242.938 311.797a16.18 16.18 0 0 0 4.478-12.44 80.018 80.018 0 0 0-5.349-10.2c-3.981-8.957 0-15.488 6.22-21.646" stroke="#FEF6E4" stroke-width="2" stroke-miterlimit="10" stroke-linecap="round"/><path d="M286.851 363.05c23.263-12.44 62.2-19.344 82.228-24.133" stroke="#FEF6E4" stroke-width="2" stroke-linecap="square" stroke-linejoin="round"/><path d="m379.28 393.839-4.852.871c-36.698 6.22-77.376 6.22-87.08 1.431" stroke="#FEF6E4" stroke-width="2" stroke-linecap="round" stroke-linejoin="round"/></g></g><defs><clipPath id="a"><path fill="#fff" d="M0 0h459v564H0z"/></clipPath><clipPath id="b"><path fill="#fff" d="M0 0h459v1032H0z"/></clipPath></defs></svg>