<svg width="434" height="546" fill="none" xmlns="http://www.w3.org/2000/svg"><g clip-path="url(#a)"><g clip-path="url(#b)"><path d="M281.171 435.313h106.613a206.213 206.213 0 0 0-2.51-47.605c-24.196 6.787-58.114 13.873-98.761 21.757l-5.662 1.098c-8.76 2.045-19.549 1.197-24.303 12.025-.428.949-.908 2.595-1.496 4.392h1.068l19.39.848a5.963 5.963 0 0 1 2.65.707 5.505 5.505 0 0 1 1.979 1.792 4.984 4.984 0 0 1 .338 4.986h.694Z" fill="#001858"/><path d="M272.518 378.527c4.945 3.249 8.844 7.701 11.273 12.874 2.429 5.172 3.297 10.867 2.508 16.467v1.197c40.648-7.884 74.779-14.97 98.761-21.756 23.983-6.786 37.87-12.824 40.114-19.162 17.252-48.852-20.778-147.654-40.701-166.017-11.591-10.629-38.351-18.912-67.194-24.151-1.299-3.457-3.59-6.512-6.624-8.833a8.02 8.02 0 0 0-1.281-.499 142.754 142.754 0 0 0-53.093 0 16.314 16.314 0 0 0-2.991 1.048 12.002 12.002 0 0 0-4.835 3.357 10.9 10.9 0 0 0-2.483 5.126s-53.948 5.689-64.096 17.615c-12.178 14.171-33.544 63.024-51.277 137.973l66.606 2.096c3.99.161 7.789 1.638 10.723 4.169 2.934 2.53 4.812 5.951 5.301 9.653l10.683 62.475c1.015-8.632 1.709-19.062 11.537-21.806 9.829-2.745 22.701-6.986 37.069-11.826Z" fill="#001858"/><path d="M198.648 518.696h181.979v208.931H111.958V535.063M280.637 408.716c83.432-16.068 140.05-28.942 144.697-42.016 17.252-48.852-20.778-147.704-40.701-166.017-11.591-10.678-38.351-18.912-67.194-24.201-1.299-3.456-3.59-6.512-6.623-8.833-4.113-2.295-36.482-4.99-54.375-.648-2.521.486-4.838 1.645-6.667 3.337-1.83 1.692-3.095 3.843-3.642 6.193 0 0-53.947 5.689-64.096 17.665-12.232 14.222-33.65 61.826-51.49 137.175" stroke="#001858" stroke-width="2" stroke-linejoin="round"/><path d="M385.274 386.111c11.484 73.852-11.057 109.232-56.351 127.245a105.313 105.313 0 0 1-25.425 5.44l-104.904-.4M26.71 481.67c-6.089 26.048-7.157 75.149-12.445 199.001M27.992 349.036l16.772 87.974c.572 3.506 2.39 6.731 5.16 9.156 2.77 2.425 6.333 3.91 10.116 4.217l150.946 8.882a18.52 18.52 0 0 0 7.531-1.477 17.397 17.397 0 0 0 6.12-4.358 15.964 15.964 0 0 0 3.522-6.391 15.28 15.28 0 0 0 .24-7.185l-15.17-91.666c-.49-3.698-2.37-7.112-5.305-9.635-2.935-2.522-6.734-3.989-10.719-4.138l-152.441-4.99a18.53 18.53 0 0 0-7.375 1.695 17.355 17.355 0 0 0-5.913 4.452 15.95 15.95 0 0 0-3.342 6.37 15.32 15.32 0 0 0-.142 7.094Z" stroke="#001858" stroke-width="2" stroke-miterlimit="10"/><path d="m217.823 458.317 59.503-22.056a5.49 5.49 0 0 0 2.517-2.361 4.987 4.987 0 0 0 .506-3.299 5.203 5.203 0 0 0-1.706-2.927 5.848 5.848 0 0 0-3.24-1.393l-19.443-.998M386.663 433.666l-105.492.198" stroke="#001858" stroke-width="2" stroke-miterlimit="10"/><path d="M280.797 408.716c-8.759 1.996-19.549 1.198-24.303 12.026-1.602 3.543-4.113 17.365-11.377 11.826-3.044-2.345-1.923-9.281-1.335-12.574a47.126 47.126 0 0 1 6.142-16.218M237.319 399.984c-3.899 6.587-10.362 36.127 5.875 31.936" stroke="#001858" stroke-width="2" stroke-miterlimit="10" stroke-linecap="round"/><path d="M233.527 429.225c0 .848-5.822 2.795-6.891-.549" stroke="#001858" stroke-width="2" stroke-miterlimit="10" stroke-linecap="round"/><path d="M180.647 329.874c1.977-11.926 14.262-49.9 21.366-75.898" stroke="#FEF6E4" stroke-width="2" stroke-miterlimit="10" stroke-linecap="square"/><path d="M287.634 407.569c0-15.869-6.676-25.4-16.504-30.639" stroke="#FEF6E4" stroke-width="2" stroke-miterlimit="10"/><path d="M340.3 449.884c-.855 27.345 25.158 40.818 51.704 42.065M305.741 61.113c-1.655-11.328-3.845-28.094-12.285-36.876-27.08-28.244-58.434 29.291-63.508 47.804-4.7 17.315 21.365 56.187 28.897 58.982 11.27 4.191 27.347-5.739 32.475-15.569" stroke="#001858" stroke-width="2" stroke-miterlimit="10" stroke-linecap="round"/><path d="M309.374 168.847a475.76 475.76 0 0 0-.748-85.878M261.889 130.524c-2.991 11.826-3.632 26.846-8.92 37.524" stroke="#001858" stroke-width="2" stroke-miterlimit="10"/><path d="M301.362 66.302c14.955-20.558 25.958 6.487 20.243 13.573-3.739 4.541-11.59 3.693-16.024 1.547" stroke="#001858" stroke-width="2" stroke-miterlimit="10" stroke-linecap="round"/><path d="M248.269 37.11c-1.816 0-44.707-7.983-38.672-18.961 6.891-12.575 89.468 27.096 94.435 29.391" stroke="#001858" stroke-width="2" stroke-miterlimit="10"/><path d="M308.359 70.344c2.278 1.957 5.239 3.074 8.332 3.144" stroke="#001858" stroke-width="2" stroke-miterlimit="10" stroke-linecap="round"/><path d="M274.388 85.614c-1.239 0-2.244-.939-2.244-2.096 0-1.158 1.005-2.096 2.244-2.096 1.239 0 2.243.938 2.243 2.096 0 1.157-1.004 2.096-2.243 2.096ZM247.361 85.614c-1.239 0-2.244-.939-2.244-2.096 0-1.158 1.005-2.096 2.244-2.096 1.239 0 2.243.938 2.243 2.096 0 1.157-1.004 2.096-2.243 2.096Z" fill="#001858"/><path d="M255.96 77.48c2.617 4.99-.427 13.273-1.442 18.613-.641 3.642-1.656 10.728 6.303 8.383" stroke="#001858" stroke-width="2" stroke-miterlimit="10" stroke-linecap="round"/><path d="M15.333 679.024h48.072a1262.102 1262.102 0 0 1 38.564-150.348" stroke="#001858" stroke-width="2" stroke-miterlimit="10"/><path d="M282.667 107.969c-.908 6.936-11.644 6.936-13.567 4.99" stroke="#001858" stroke-width="2" stroke-miterlimit="10" stroke-linecap="round"/><path d="M349.594 255.773c11.377 33.533 25.585 75.898 22.7 81.137-2.884 5.24-58.22 24.95-101.485 39.471" stroke="#FEF6E4" stroke-width="2" stroke-miterlimit="10" stroke-linecap="round"/><path d="M287.154 405.872c43.425-5.639 77.876-12.076 104.209-17.814" stroke="#FEF6E4" stroke-width="2" stroke-miterlimit="10" stroke-linecap="square"/><path d="M39.369 403.826c-2.884.848-5.715 1.796-8.546 2.794-29.27 10.43-39.473 45.21-14.796 65.968 18.695 15.719 176.264 112.724 186.199 117.465l34.399-34.431s-72.589-71.657-103.516-100.549" stroke="#001858" stroke-width="2" stroke-miterlimit="10"/><path d="M255.96 77.48s-8.279-4.99-13.033 0" stroke="#001858" stroke-width="2" stroke-miterlimit="10" stroke-linecap="round"/><path d="M281.492 77.48a14.969 14.969 0 0 0-6.517-1.485c-2.268 0-4.503.51-6.516 1.485" stroke="#001858" stroke-width="2" stroke-linecap="round" stroke-linejoin="round"/></g></g><defs><clipPath id="a"><path fill="#fff" d="M0 0h434v546H0z"/></clipPath><clipPath id="b"><path fill="#fff" transform="matrix(-1 0 0 1 431 15)" d="M0 0h492v714H0z"/></clipPath></defs></svg>