<?xml version="1.0" standalone="no"?>
<!DOCTYPE svg PUBLIC "-//W3C//DTD SVG 20010904//EN"
 "http://www.w3.org/TR/2001/REC-SVG-20010904/DTD/svg10.dtd">
<svg version="1.0" xmlns="http://www.w3.org/2000/svg"
 width="100.000000pt" height="55.000000pt" viewBox="0 0 100.000000 55.000000"
 preserveAspectRatio="xMidYMid meet">

<g transform="translate(0.000000,55.000000) scale(0.100000,-0.100000)"
fill="#000000" stroke="none">
<path d="M230 529 l-45 -21 42 -15 c55 -19 99 -65 112 -118 6 -24 11 -116 11
-204 l0 -161 66 0 66 0 -4 198 c-3 188 -4 200 -28 247 -19 38 -36 56 -70 73
-55 27 -92 28 -150 1z"/>
<path d="M524 525 c-4 -8 -5 -97 -3 -198 4 -172 6 -186 29 -232 33 -66 93 -99
162 -91 50 5 112 37 87 44 -55 16 -98 46 -120 85 -23 40 -24 53 -27 225 l-4
182 -59 0 c-44 0 -61 -4 -65 -15z"/>
<path d="M868 333 c-3 -175 -6 -213 -21 -242 -9 -19 -16 -36 -14 -37 10 -11
86 23 113 50 45 45 54 89 54 274 l0 162 -64 0 -65 0 -3 -207z"/>
<path d="M123 489 c-46 -13 -99 -68 -112 -114 -6 -22 -11 -113 -11 -202 l0
-163 65 0 65 0 0 198 c0 175 3 202 20 241 27 59 29 56 -27 40z"/>
</g>
</svg>
