<svg width="22" height="22" viewBox="0 0 22 22" fill="none" xmlns="http://www.w3.org/2000/svg">
<path d="M12.1687 20.1667C11.8173 20.1667 11.5614 20.0521 11.401 19.823C11.2406 19.5938 11.2215 19.3112 11.3437 18.975L14.7125 10.0375C14.8041 9.7931 14.9722 9.58685 15.2166 9.41879C15.4611 9.25073 15.7132 9.16671 15.9729 9.16671C16.2326 9.16671 16.4885 9.25073 16.7406 9.41879C16.9927 9.58685 17.1645 9.7931 17.2562 10.0375L20.6937 18.8834C20.8312 19.2348 20.8159 19.5365 20.6479 19.7886C20.4798 20.0407 20.1972 20.1667 19.8 20.1667C19.6319 20.1667 19.4715 20.1132 19.3187 20.0063C19.1659 19.8993 19.059 19.7618 18.9979 19.5938L18.2416 17.2792H13.8416L12.9708 19.6167C12.9097 19.7695 12.8027 19.8993 12.65 20.0063C12.4972 20.1132 12.3368 20.1667 12.1687 20.1667ZM14.3458 15.675H17.6L15.9958 11.2292H15.95L14.3458 15.675ZM6.62288 7.83754C6.85204 8.23476 7.10413 8.62053 7.37913 8.99483C7.65413 9.36914 7.95204 9.7549 8.27288 10.1521C8.96038 9.43407 9.53329 8.68928 9.99163 7.91775C10.45 7.14622 10.8395 6.34032 11.1604 5.50004H1.83329C1.57357 5.50004 1.35586 5.41219 1.18017 5.2365C1.00447 5.0608 0.916626 4.8431 0.916626 4.58337C0.916626 4.32365 1.00447 4.10594 1.18017 3.93025C1.35586 3.75455 1.57357 3.66671 1.83329 3.66671H7.33329V2.75004C7.33329 2.49032 7.42114 2.27261 7.59683 2.09692C7.77253 1.92122 7.99024 1.83337 8.24996 1.83337C8.50968 1.83337 8.72739 1.92122 8.90308 2.09692C9.07878 2.27261 9.16663 2.49032 9.16663 2.75004V3.66671H14.6666C14.9263 3.66671 15.1441 3.75455 15.3198 3.93025C15.4954 4.10594 15.5833 4.32365 15.5833 4.58337C15.5833 4.8431 15.4954 5.0608 15.3198 5.2365C15.1441 5.41219 14.9263 5.50004 14.6666 5.50004H12.9937C12.6576 6.55421 12.2107 7.58928 11.6531 8.60525C11.0954 9.62122 10.4118 10.5875 9.60204 11.5042L11.8479 13.773L11.1604 15.6292L8.24996 12.8334L4.28538 16.798C4.11732 16.966 3.91107 17.05 3.66663 17.05C3.42218 17.05 3.21593 16.9584 3.04788 16.775C2.86454 16.607 2.77288 16.4007 2.77288 16.1563C2.77288 15.9118 2.86454 15.698 3.04788 15.5146L7.08121 11.4813C6.68399 11.0077 6.30968 10.5302 5.95829 10.049C5.6069 9.56775 5.28607 9.07504 4.99579 8.57087C4.81246 8.23476 4.79718 7.94448 4.94996 7.70004C5.10274 7.4556 5.37774 7.33337 5.77496 7.33337C5.94301 7.33337 6.10725 7.38303 6.26767 7.48233C6.42808 7.58164 6.54649 7.70004 6.62288 7.83754Z" fill="url(#paint0_linear_26_29)"/>
<defs>
<linearGradient id="paint0_linear_26_29" x1="10.8516" y1="1.83337" x2="10.8516" y2="20.1667" gradientUnits="userSpaceOnUse">
<stop stop-color="#30C0ED"/>
<stop offset="1" stop-color="#189AD3"/>
</linearGradient>
</defs>
</svg>
