<svg width="22" height="22" viewBox="0 0 22 22" fill="none" xmlns="http://www.w3.org/2000/svg">
<path d="M12.8333 8.06663C12.8333 7.97496 12.8638 7.88711 12.925 7.80308C12.9861 7.71906 13.0548 7.66176 13.1312 7.63121C13.5895 7.46315 14.0593 7.33329 14.5406 7.24163C15.0218 7.14996 15.5222 7.10413 16.0416 7.10413C16.3777 7.10413 16.7062 7.12322 17.027 7.16142C17.3479 7.19961 17.6611 7.2569 17.9666 7.33329C18.0583 7.36385 18.1423 7.42114 18.2187 7.50517C18.2951 7.5892 18.3333 7.68468 18.3333 7.79163C18.3333 7.95968 18.276 8.08954 18.1614 8.18121C18.0468 8.27288 17.9055 8.29579 17.7375 8.24996C17.4777 8.17357 17.2066 8.11628 16.9239 8.07808C16.6413 8.03989 16.3472 8.02079 16.0416 8.02079C15.5986 8.02079 15.1708 8.06281 14.7583 8.14683C14.3458 8.23086 13.9409 8.3569 13.5437 8.52496C13.3298 8.60135 13.1579 8.59753 13.0281 8.5135C12.8982 8.42947 12.8333 8.28052 12.8333 8.06663ZM12.8333 13.1083C12.8333 13.0166 12.8638 12.925 12.925 12.8333C12.9861 12.7416 13.0548 12.6805 13.1312 12.65C13.5895 12.4819 14.0593 12.3559 14.5406 12.2718C15.0218 12.1878 15.5222 12.1458 16.0416 12.1458C16.3777 12.1458 16.7062 12.1649 17.027 12.2031C17.3479 12.2413 17.6611 12.2986 17.9666 12.375C18.0583 12.4055 18.1423 12.4628 18.2187 12.5468C18.2951 12.6309 18.3333 12.7263 18.3333 12.8333C18.3333 13.0013 18.276 13.1312 18.1614 13.2229C18.0468 13.3145 17.9055 13.3375 17.7375 13.2916C17.4777 13.2152 17.2066 13.1579 16.9239 13.1198C16.6413 13.0816 16.3472 13.0625 16.0416 13.0625C15.5986 13.0625 15.1708 13.1007 14.7583 13.177C14.3458 13.2534 13.9409 13.3757 13.5437 13.5437C13.3298 13.6201 13.1579 13.6201 13.0281 13.5437C12.8982 13.4673 12.8333 13.3222 12.8333 13.1083ZM12.8333 10.5875C12.8333 10.4958 12.8638 10.4079 12.925 10.3239C12.9861 10.2399 13.0548 10.1826 13.1312 10.152C13.5895 9.98399 14.0593 9.85413 14.5406 9.76246C15.0218 9.67079 15.5222 9.62496 16.0416 9.62496C16.3777 9.62496 16.7062 9.64406 17.027 9.68225C17.3479 9.72045 17.6611 9.77774 17.9666 9.85413C18.0583 9.88468 18.1423 9.94197 18.2187 10.026C18.2951 10.11 18.3333 10.2055 18.3333 10.3125C18.3333 10.4805 18.276 10.6104 18.1614 10.702C18.0468 10.7937 17.9055 10.8166 17.7375 10.7708C17.4777 10.6944 17.2066 10.6371 16.9239 10.5989C16.6413 10.5607 16.3472 10.5416 16.0416 10.5416C15.5986 10.5416 15.1708 10.5836 14.7583 10.6677C14.3458 10.7517 13.9409 10.8777 13.5437 11.0458C13.3298 11.1222 13.1579 11.1184 13.0281 11.0343C12.8982 10.9503 12.8333 10.8013 12.8333 10.5875ZM5.68329 15.125C6.50829 15.125 7.30656 15.2204 8.07808 15.4114C8.84961 15.6024 9.60968 15.8888 10.3583 16.2708V6.48538C9.67079 6.02704 8.926 5.67183 8.12392 5.41975C7.32183 5.16767 6.50829 5.04163 5.68329 5.04163C5.10274 5.04163 4.53364 5.1142 3.976 5.25933C3.41836 5.40447 2.8569 5.58399 2.29163 5.79788V15.7437C2.76524 15.5298 3.30378 15.3732 3.90725 15.2739C4.51072 15.1746 5.10274 15.125 5.68329 15.125ZM11.7333 16.2708C12.4972 15.8888 13.2458 15.6024 13.9791 15.4114C14.7125 15.2204 15.4916 15.125 16.3166 15.125C16.8972 15.125 17.4968 15.1708 18.1156 15.2625C18.7343 15.3541 19.2652 15.4763 19.7083 15.6291V5.79788C19.1888 5.53815 18.6388 5.34718 18.0583 5.22496C17.4777 5.10274 16.8972 5.04163 16.3166 5.04163C15.4916 5.04163 14.6934 5.16767 13.9218 5.41975C13.1503 5.67183 12.4208 6.02704 11.7333 6.48538V16.2708ZM11.0458 18.0812C10.9236 18.0812 10.8128 18.0698 10.7135 18.0468C10.6142 18.0239 10.5263 17.9819 10.45 17.9208C9.7319 17.4777 8.96801 17.134 8.15829 16.8895C7.34857 16.6451 6.52357 16.5229 5.68329 16.5229C5.11801 16.5229 4.56801 16.5916 4.03329 16.7291C3.49857 16.8666 2.96385 17.0347 2.42913 17.2333C2.07774 17.4013 1.73781 17.3784 1.40933 17.1645C1.08086 16.9507 0.916626 16.6451 0.916626 16.2479V5.63746C0.916626 5.40829 0.970098 5.19822 1.07704 5.00725C1.18399 4.81628 1.3444 4.66732 1.55829 4.56038C2.19996 4.25482 2.86836 4.02947 3.5635 3.88433C4.25864 3.7392 4.96524 3.66663 5.68329 3.66663C6.64579 3.66663 7.58156 3.79649 8.49058 4.05621C9.39961 4.31593 10.2513 4.71315 11.0458 5.24788C11.825 4.71315 12.6614 4.31593 13.5552 4.05621C14.4489 3.79649 15.3694 3.66663 16.3166 3.66663C17.0347 3.66663 17.7375 3.7392 18.425 3.88433C19.1125 4.02947 19.777 4.25482 20.4187 4.56038C20.6326 4.66732 20.7968 4.81628 20.9114 5.00725C21.026 5.19822 21.0833 5.40829 21.0833 5.63746V16.2479C21.0833 16.6757 20.9114 17.0003 20.5677 17.2218C20.2239 17.4434 19.884 17.4472 19.5479 17.2333C19.0284 17.0194 18.5013 16.8475 17.9666 16.7177C17.4319 16.5878 16.8819 16.5229 16.3166 16.5229C15.4916 16.5229 14.6819 16.6451 13.8875 16.8895C13.093 17.134 12.3444 17.4777 11.6416 17.9208C11.5652 17.9819 11.4774 18.0239 11.3781 18.0468C11.2788 18.0698 11.168 18.0812 11.0458 18.0812Z" fill="url(#paint0_linear_26_27)"/>
<defs>
<linearGradient id="paint0_linear_26_27" x1="11" y1="3.66663" x2="11" y2="18.0812" gradientUnits="userSpaceOnUse">
<stop stop-color="#30C0ED"/>
<stop offset="1" stop-color="#189AD3"/>
</linearGradient>
</defs>
</svg>
